<svg width="250" height="28" viewBox="0 0 320 28" fill="none" xmlns="http://www.w3.org/2000/svg"><path fill-rule="evenodd" clip-rule="evenodd" d="M54.4258 14.0064C54.428 16.7637 53.6141 19.4597 52.0872 21.7534C50.5602 24.0471 48.3887 25.8354 45.8475 26.8921C43.3062 27.9488 40.5092 28.2264 37.8105 27.6898C35.1117 27.1532 32.6324 25.8266 30.6861 23.8777C28.7398 21.9288 27.414 19.4451 26.8765 16.7409C26.7225 15.9666 26.6352 15.1842 26.6137 14.402C26.5133 17.7961 25.124 21.03 22.7212 23.438C20.2251 25.9395 16.8397 27.3448 13.3098 27.3448H0V0.667619H13.3098C16.8397 0.667619 20.2251 2.07292 22.7212 4.57439C25.1266 6.98505 26.5163 10.2234 26.614 13.6215C26.6619 11.9345 27.0153 10.2613 27.6661 8.68587C28.7185 6.13824 30.5012 3.96063 32.7887 2.42852C35.0762 0.89641 37.7658 0.0786209 40.5171 0.0786209C44.2022 0.0844911 47.7349 1.55346 50.3417 4.16383C52.9485 6.77419 54.417 10.3133 54.4258 14.0064ZM89.3085 0.666941L85.5263 14.6169L81.7552 0.666941H74.8119L70.9854 14.6614L67.2032 0.666941H56.4888L65.9388 27.3441H74.8119L78.2947 16.5288L81.7552 27.3441H90.6284L100.023 0.666941H89.3085ZM128.084 0.666941V27.3441H117.991V17.7959H111.702V27.3441H101.609V0.666941H111.702V10.2152H118.002V0.666941H128.084ZM131.867 0.666941V27.3441H141.949V0.666941H131.867ZM164.021 19.7078V27.3441H145.731V0.666941H155.824V19.7522L164.021 19.7078ZM176.621 10.8043V8.25885L184.817 8.30329V0.666941H166.539V27.3441H184.817V19.7078H176.621V17.1624H182.932V10.8043H176.621Z" fill="url(#dowhile)"></path><path d="M216.739 0.833684L213.145 0.288967C213.034 0.288967 212.923 0.288997 212.923 0.389037L211.393 2.3565C211.314 2.48659 211.279 2.63847 211.293 2.78996C211.293 2.90111 211.182 3.12343 211.071 3.01228L209.873 2.68995C209.651 2.68995 209.44 2.68996 209.33 2.90115L204.427 9.237C204.316 9.34816 204.205 9.34813 203.995 9.34813L202.142 8.47003C202.062 8.41603 201.967 8.38719 201.87 8.38719C201.774 8.38719 201.679 8.41603 201.599 8.47003L200.612 9.1258C200.532 9.18126 200.437 9.21102 200.34 9.21102C200.243 9.21102 200.148 9.18126 200.068 9.1258L199.636 8.90348C199.564 8.87145 199.486 8.85473 199.408 8.85436C199.329 8.854 199.252 8.87001 199.18 8.90138C199.108 8.93274 199.043 8.97881 198.99 9.03659C198.936 9.09437 198.896 9.16261 198.87 9.237L198.549 10.7598C198.507 10.9216 198.515 11.0923 198.573 11.2492C198.63 11.406 198.734 11.5416 198.87 11.6379L199.746 12.1826L202.031 13.6054L203.14 14.2612C203.294 14.3489 203.471 14.3854 203.647 14.3654C203.822 14.3455 203.987 14.27 204.117 14.15L205.969 12.516C206.135 12.4152 206.331 12.3759 206.523 12.4049L207.067 12.7272C207.278 12.8384 207.499 12.8384 207.61 12.6161L208.586 11.749C208.654 11.676 208.743 11.6261 208.84 11.6062C208.938 11.5862 209.039 11.5973 209.13 11.6379L210.55 12.2938C210.771 12.4049 210.982 12.2937 211.204 12.1826L211.858 11.3156L216.761 4.97974C216.971 4.64628 216.872 4.21277 216.428 4.21277L215.319 4.00157C215.097 4.00157 214.997 3.66811 215.097 3.4458L216.849 1.37833C217.071 1.15602 216.949 0.833684 216.739 0.833684Z" fill="white"></path><path d="M200.434 13.6053C200.323 13.4942 200.212 13.6053 200.212 13.7164L200.756 15.1281V15.4616L200.323 17.3179C200.316 17.3765 200.322 17.436 200.341 17.4919C200.361 17.5477 200.392 17.5985 200.434 17.6402L201.732 18.6295C201.795 18.6782 201.873 18.7046 201.954 18.7046C202.034 18.7046 202.112 18.6782 202.175 18.6295L203.584 17.429C203.628 17.387 203.68 17.3553 203.738 17.336C203.795 17.3168 203.857 17.3106 203.917 17.3179L205.436 17.0956C205.547 17.0956 205.547 16.9844 205.436 16.8733L200.434 13.6053Z" fill="white"></path><path d="M199.957 18.2961C199.939 18.2708 199.914 18.2503 199.886 18.2361C199.858 18.222 199.828 18.2146 199.796 18.2146C199.765 18.2146 199.734 18.222 199.706 18.2361C199.678 18.2503 199.654 18.2708 199.635 18.2961L198.526 18.8407C198.497 18.8407 198.469 18.8525 198.448 18.8733C198.427 18.8942 198.415 18.9225 198.415 18.9519L196.02 24.8431H196.131L196.674 24.6319V24.7431L194.933 27.5776C194.933 27.6887 194.933 27.6887 195.032 27.6887L201.133 21.4641C201.244 21.4641 201.244 21.3529 201.244 21.2417L201.355 19.6077C201.355 19.4966 201.355 19.3855 201.244 19.3855L199.957 18.2961Z" fill="white"></path><path d="M247.539 19.7078V27.3442H222.961C222.961 27.3442 234.651 14.4725 236.193 11.449C237.413 9.07032 236.115 7.63643 234.928 7.63643C233.742 7.63643 232.411 8.31446 232.411 11.449L223.038 10.8154C223.038 4.85753 227.209 0.0111389 234.928 0.0111389C242.371 0.0111389 246.907 3.94605 246.907 9.54826C246.907 13.0385 243.912 17.0179 240.607 19.719L247.539 19.7078Z" fill="white"></path><path d="M275.268 14.0058C275.268 21.72 270.177 28.0003 262.657 28.0003C255.137 28.0003 250.057 21.72 250.057 14.0058C250.057 6.29166 255.137 0.0224953 262.657 0.0224953C270.177 0.0224953 275.268 6.22496 275.268 14.0058Z" fill="white"></path><path d="M302.365 19.7078V27.3442H277.786C277.786 27.3442 289.476 14.4725 291.018 11.449C292.238 9.07032 290.94 7.63643 289.754 7.63643C288.567 7.63643 287.236 8.31446 287.236 11.449L277.864 10.8154C277.864 4.85753 282.034 0.0111389 289.754 0.0111389C297.196 0.0111389 301.732 3.94605 301.732 9.54826C301.732 13.0385 298.738 17.0179 295.432 19.719L302.365 19.7078Z" fill="white"></path><path d="M320 3.05176e-05V27.3441H309.918V9.55933L305.481 10.1151V2.44539L320 3.05176e-05Z" fill="white"></path><defs><linearGradient id="dowhile" x1="-3.78147e-06" y1="0.739893" x2="59.8861" y2="101.908" gradientUnits="userSpaceOnUse"><stop stop-color="#FF008E"></stop><stop offset="1" stop-color="#FFCD1E"></stop></linearGradient></defs></svg>