<svg width="48" height="48" viewBox="0 0 48 48" fill="none" xmlns="http://www.w3.org/2000/svg">
<rect width="48" height="48" fill="#323238"/>
<path fill-rule="evenodd" clip-rule="evenodd" d="M12 24C12 17.3726 17.3726 12 24 12C30.6274 12 36 17.3726 36 24C36 30.6274 30.6274 36 24 36C17.3726 36 12 30.6274 12 24ZM18.15 21.975V30H20.7V21.975H18.15ZM18 19.425C18 20.25 18.6 20.85 19.425 20.85C20.25 20.85 20.85 20.25 20.85 19.425C20.85 18.6 20.25 18 19.425 18C18.675 18 18 18.6 18 19.425ZM27.45 30H29.85V25.05C29.85 22.575 28.35 21.75 26.925 21.75C25.65 21.75 24.75 22.575 24.525 23.1V21.975H22.125V30H24.675V25.725C24.675 24.6 25.425 24 26.175 24C26.925 24 27.45 24.375 27.45 25.65V30Z" fill="white"/>
</svg>
